<?xml version="1.0" encoding="UTF-8"?>
<svg xmlns="http://www.w3.org/2000/svg" xmlns:xlink="http://www.w3.org/1999/xlink" width="33pt" height="33pt" viewBox="0 0 33 33" version="1.1">
<g id="surface1">
<path style=" stroke:none;fill-rule:nonzero;fill:rgb(20.392157%,22.745098%,25.098039%);fill-opacity:1;" d="M 31.722656 16.5 C 31.722656 24.90625 24.90625 31.722656 16.5 31.722656 C 8.09375 31.722656 1.277344 24.90625 1.277344 16.5 C 1.277344 8.09375 8.09375 1.277344 16.5 1.277344 C 24.90625 1.277344 31.722656 8.09375 31.722656 16.5 Z M 31.722656 16.5 "/>
<path style=" stroke:none;fill-rule:nonzero;fill:rgb(20.392157%,22.745098%,25.098039%);fill-opacity:1;" d="M 16.5 33 C 7.402344 33 0 25.597656 0 16.5 C 0 7.402344 7.402344 0 16.5 0 C 25.597656 0 33 7.402344 33 16.5 C 33 25.597656 25.597656 33 16.5 33 Z M 16.5 2.554688 C 8.8125 2.554688 2.554688 8.8125 2.554688 16.5 C 2.554688 24.1875 8.8125 30.445312 16.5 30.445312 C 24.1875 30.445312 30.445312 24.1875 30.445312 16.5 C 30.445312 8.8125 24.1875 2.554688 16.5 2.554688 Z M 16.5 2.554688 "/>
<path style=" stroke:none;fill-rule:nonzero;fill:rgb(100%,100%,100%);fill-opacity:1;" d="M 23.796875 20.054688 C 23.300781 20.550781 22.496094 20.550781 21.996094 20.054688 L 16.511719 14.570312 L 11.03125 20.054688 C 10.496094 20.511719 9.6875 20.449219 9.226562 19.914062 C 8.816406 19.4375 8.816406 18.730469 9.226562 18.25 L 15.617188 11.859375 C 16.117188 11.363281 16.921875 11.363281 17.421875 11.859375 L 23.8125 18.25 C 24.300781 18.753906 24.296875 19.558594 23.796875 20.054688 Z M 23.796875 20.054688 "/>
</g>
</svg>
